<svg width="335" height="335" viewBox="0 0 335 335" fill="none" xmlns="http://www.w3.org/2000/svg">
<circle cx="167.5" cy="167.5" r="167.5" fill="#2D3F67"/>
<mask id="mask0_8_100" style="mask-type:alpha" maskUnits="userSpaceOnUse" x="30" y="30" width="275" height="275">
<circle cx="167.5" cy="167.5" r="137.5" fill="#4D5F83"/>
</mask>
<g mask="url(#mask0_8_100)">
<circle cx="167.5" cy="167.5" r="167.5" fill="url(#paint0_radial_8_100)"/>
<path d="M233.5 173.5L307 53.5L316 114.5L344.5 204.5L273.5 314L148.5 333.5L85 285.5L82 253L56 218.5L132 150.5L164.5 178L212.5 153.5L233.5 173.5Z" fill="#34426F"/>
<circle cx="86.5" cy="298.5" r="36.5" fill="#697897"/>
<circle cx="155" cy="282" r="32" fill="#697897"/>
<circle cx="278" cy="195" r="27" fill="#697897"/>
<circle cx="339" cy="216" r="61" fill="#697897"/>
<circle cx="238" cy="277" r="40" fill="#697897"/>
<path d="M89.5 234C82.0442 234 76 240.044 76 247.5V330.5H103V247.5C103 240.044 96.9558 234 89.5 234Z" fill="white"/>
<path d="M124.5 217C117.044 217 111 223.044 111 230.5V349.5L138 345.222V230.5C138 223.044 131.956 217 124.5 217Z" fill="white"/>
<path d="M159.5 221C152.044 221 146 227.044 146 234.5V340.5H173V234.5C173 227.044 166.956 221 159.5 221Z" fill="white"/>
<path d="M194.5 193C187.044 193 181 199.044 181 206.5L181 351.5H208V206.5C208 199.044 201.956 193 194.5 193Z" fill="white"/>
<path d="M229.5 201C222.044 201 216 207.044 216 214.5V316H243V214.5C243 207.044 236.956 201 229.5 201Z" fill="white"/>
<path d="M264.5 169C257.044 169 251 175.044 251 182.5V323.5L278 284V182.5C278 175.044 271.956 169 264.5 169Z" fill="white"/>
</g>
<path d="M55.5512 208.261C52.9339 210.718 52.804 214.832 55.261 217.449C57.718 220.066 61.8316 220.196 64.4488 217.739L60 213L55.5512 208.261ZM133.5 144L138.059 139.367L133.606 134.985L129.051 139.261L133.5 144ZM165 175L160.441 179.633L163.723 182.863L167.859 180.837L165 175ZM214 151L218.659 146.467L215.373 143.09L211.141 145.163L214 151ZM232 169.5L227.341 174.033L233.104 179.956L237.503 172.96L232 169.5ZM60 213L64.4488 217.739L137.949 148.739L133.5 144L129.051 139.261L55.5512 208.261L60 213ZM133.5 144L128.941 148.633L160.441 179.633L165 175L169.559 170.367L138.059 139.367L133.5 144ZM165 175L167.859 180.837L216.859 156.837L214 151L211.141 145.163L162.141 169.163L165 175ZM214 151L209.341 155.533L227.341 174.033L232 169.5L236.659 164.967L218.659 146.467L214 151ZM232 169.5L237.503 172.96L301.003 71.9597L295.5 68.5L289.997 65.0403L226.497 166.04L232 169.5Z" fill="#FCBD12"/>
<path d="M309.108 47.2077L308.021 77.2213L282.572 61.2731L309.108 47.2077Z" fill="#FCBD12"/>
<circle cx="167" cy="93" r="37.5" fill="#34426F" stroke="white" stroke-width="7"/>
<path d="M145.051 105V80.2727H155.725C157.56 80.2727 159.166 80.6068 160.542 81.2749C161.919 81.9429 162.989 82.9048 163.754 84.1605C164.519 85.4162 164.901 86.9214 164.901 88.6761C164.901 90.447 164.506 91.9401 163.718 93.1555C162.937 94.371 161.838 95.2886 160.421 95.9084C159.013 96.5282 157.367 96.8381 155.483 96.8381H149.108V91.6222H154.131C154.92 91.6222 155.592 91.5256 156.147 91.3324C156.711 91.1312 157.141 90.8132 157.439 90.3786C157.745 89.9439 157.898 89.3764 157.898 88.6761C157.898 87.9678 157.745 87.3923 157.439 86.9496C157.141 86.4988 156.711 86.1688 156.147 85.9595C155.592 85.7422 154.92 85.6335 154.131 85.6335H151.765V105H145.051ZM159.54 93.6506L165.722 105H158.429L152.392 93.6506H159.54ZM169.219 111.955V86.4545H175.835V89.6903H175.98C176.222 89.0625 176.576 88.487 177.043 87.9638C177.51 87.4325 178.089 87.0099 178.781 86.696C179.474 86.3741 180.279 86.2131 181.196 86.2131C182.42 86.2131 183.583 86.5391 184.686 87.1911C185.796 87.843 186.698 88.8693 187.39 90.2699C188.09 91.6705 188.441 93.4896 188.441 95.7273C188.441 97.8684 188.107 99.6432 187.438 101.052C186.778 102.46 185.893 103.511 184.782 104.203C183.679 104.895 182.468 105.241 181.148 105.241C180.279 105.241 179.502 105.101 178.818 104.819C178.142 104.529 177.562 104.139 177.079 103.648C176.604 103.149 176.238 102.585 175.98 101.957H175.884V111.955H169.219ZM175.739 95.7273C175.739 96.6288 175.856 97.4096 176.089 98.0696C176.33 98.7216 176.669 99.2287 177.103 99.5909C177.546 99.9451 178.073 100.122 178.685 100.122C179.297 100.122 179.816 99.9491 180.242 99.603C180.677 99.2488 181.007 98.7457 181.232 98.0938C181.466 97.4337 181.583 96.6449 181.583 95.7273C181.583 94.8097 181.466 94.0249 181.232 93.3729C181.007 92.7128 180.677 92.2098 180.242 91.8636C179.816 91.5095 179.297 91.3324 178.685 91.3324C178.073 91.3324 177.546 91.5095 177.103 91.8636C176.669 92.2098 176.33 92.7128 176.089 93.3729C175.856 94.0249 175.739 94.8097 175.739 95.7273Z" fill="white"/>
<defs>
<radialGradient id="paint0_radial_8_100" cx="0" cy="0" r="1" gradientUnits="userSpaceOnUse" gradientTransform="translate(167.5 167.5) rotate(90) scale(167.5)">
<stop offset="0.307692" stop-color="#33446F"/>
<stop offset="1" stop-color="#4D5F83"/>
</radialGradient>
</defs>
</svg>
